<svg width="900" height="721" xmlns="http://www.w3.org/2000/svg" version="1.1"><g transform="translate(0,10)"><g><path class="link" d="M451.5,128.56264688636452C674.25,128.56264688636452 674.25,123.56264688636445 897,123.56264688636445" style="stroke-width: 177.125; fill: none; stroke: rgb(191, 105, 191); stroke-opacity: 0.4;"><title>9060.8333</title></path><path class="link" d="M451.5,277.6807066524676C674.25,277.6807066524676 674.25,348.60135628941805 897,348.60135628941805" style="stroke-width: 121.111; fill: none; stroke: rgb(191, 105, 191); stroke-opacity: 0.4;"><title>6195.4167</title></path><path class="link" d="M3,54.73567453929882C225.75,54.73567453929882 225.75,94.73567453929888 448.5,94.73567453929888" style="stroke-width: 109.471; fill: none; stroke: rgb(148, 191, 105); stroke-opacity: 0.4;"><title>5600</title></path><path class="link" d="M3,222.5063692850295C225.75,222.5063692850295 225.75,197.73159783534555 448.5,197.73159783534555" style="stroke-width: 96.5205; fill: none; stroke: rgb(191, 191, 105); stroke-opacity: 0.4;"><title>4937.5</title></path><path class="link" d="M451.5,557.4827839138686C674.25,557.4827839138686 674.25,457.3046143085471 897,457.3046143085471" style="stroke-width: 96.2957; fill: none; stroke: rgb(191, 105, 148); stroke-opacity: 0.4;"><title>4926</title></path><path class="link" d="M451.5,385.8252043348671C674.25,385.8252043348671 674.25,563.0415442505982 897,563.0415442505982" style="stroke-width: 95.1782; fill: none; stroke: rgb(191, 105, 191); stroke-opacity: 0.4;"><title>4868.8333</title></path><path class="link" d="M3,376.05067576434067C225.75,376.05067576434067 225.75,284.2335120626303 448.5,284.2335120626303" style="stroke-width: 76.4833; fill: none; stroke: rgb(191, 105, 105); stroke-opacity: 0.4;"><title>3912.5</title></path><path class="link" d="M451.5,476.37461395600303C674.25,476.37461395600303 674.25,245.08561859120414 897,245.08561859120414" style="stroke-width: 65.9206; fill: none; stroke: rgb(191, 105, 148); stroke-opacity: 0.4;"><title>3372.1666999999998</title></path><path class="link" d="M3,299.28781416779054C225.75,299.28781416779054 225.75,526.710256713225 448.5,526.710256713225" style="stroke-width: 57.0424; fill: none; stroke: rgb(191, 191, 105); stroke-opacity: 0.4;"><title>2918</title></path><path class="link" d="M451.5,633.3153145266294C674.25,633.3153145266294 674.25,638.3153145266294 897,638.3153145266294" style="stroke-width: 55.3694; fill: none; stroke: rgb(191, 105, 148); stroke-opacity: 0.4;"><title>2832.4167</title></path><path class="link" d="M3,136.85873480343966C225.75,136.85873480343966 225.75,470.80167486236985 448.5,470.80167486236985" style="stroke-width: 54.7748; fill: none; stroke: rgb(148, 191, 105); stroke-opacity: 0.4;"><title>2802</title></path><path class="link" d="M3,486.7643169166505C225.75,486.7643169166505 225.75,344.95101389086676 448.5,344.95101389086676" style="stroke-width: 44.9517; fill: none; stroke: rgb(105, 191, 148); stroke-opacity: 0.4;"><title>2299.5</title></path><path class="link" d="M3,434.2904108969143C225.75,434.2904108969143 225.75,575.2295225012749 448.5,575.2295225012749" style="stroke-width: 39.9961; fill: none; stroke: rgb(191, 105, 105); stroke-opacity: 0.4;"><title>2046</title></path><path class="link" d="M3,523.4323317441825C225.75,523.4323317441825 225.75,609.419770633144 448.5,609.419770633144" style="stroke-width: 28.3844; fill: none; stroke: rgb(105, 191, 148); stroke-opacity: 0.4;"><title>1452</title></path><path class="link" d="M3,617.6040578587306C225.75,617.6040578587306 225.75,406.7045838443114 448.5,406.7045838443114" style="stroke-width: 26.9084; fill: none; stroke: rgb(105, 191, 105); stroke-opacity: 0.4;"><title>1376.5</title></path><path class="link" d="M3,560.5362648687318C225.75,560.5362648687318 225.75,380.3386049032831 448.5,380.3386049032831" style="stroke-width: 25.8235; fill: none; stroke: rgb(105, 148, 191); stroke-opacity: 0.4;"><title>1321</title></path><path class="link" d="M3,583.7989265479338C225.75,583.7989265479338 225.75,633.9628561274619 448.5,633.9628561274619" style="stroke-width: 20.7018; fill: none; stroke: rgb(105, 148, 191); stroke-opacity: 0.4;"><title>1059</title></path><path class="link" d="M3,637.1085290271538C225.75,637.1085290271538 225.75,650.3640100340589 448.5,650.3640100340589" style="stroke-width: 12.1005; fill: none; stroke: rgb(105, 191, 105); stroke-opacity: 0.4;"><title>619</title></path><path class="link" d="M3,657.3274839790892C225.75,657.3274839790892 225.75,424.3275162004464 448.5,424.3275162004464" style="stroke-width: 8.33742; fill: none; stroke: rgb(105, 191, 191); stroke-opacity: 0.4;"><title>426.5</title></path><path class="link" d="M3,674.6589688694753C225.75,674.6589688694753 225.75,430.1733184961946 448.5,430.1733184961946" style="stroke-width: 3.35419; fill: none; stroke: rgb(191, 148, 105); stroke-opacity: 0.4;"><title>171.5833</title></path><path class="link" d="M3,677.8860933399958C225.75,677.8860933399958 225.75,659.4499697554044 448.5,659.4499697554044" style="stroke-width: 3.10006; fill: none; stroke: rgb(191, 148, 105); stroke-opacity: 0.4;"><title>158.58339999999998</title></path><path class="link" d="M3,690.2180617922957C225.75,690.2180617922957 225.75,432.6323509298237 448.5,432.6323509298237" style="stroke-width: 1.56388; fill: none; stroke: rgb(105, 105, 191); stroke-opacity: 0.4;"><title>80</title></path><path class="link" d="M3,662.2390333462315C225.75,662.2390333462315 225.75,657.1570982134897 448.5,657.1570982134897" style="stroke-width: 1.48568; fill: none; stroke: rgb(105, 191, 191); stroke-opacity: 0.4;"><title>76</title></path><path class="link" d="M3,701C225.75,701 225.75,661 448.5,661" style="stroke-width: 1; fill: none; stroke: rgb(148, 105, 191); stroke-opacity: 0.4;"><title>0</title></path><path class="link" d="M3,701C225.75,701 225.75,433.41428913752793 448.5,433.41428913752793" style="stroke-width: 1; fill: none; stroke: rgb(148, 105, 191); stroke-opacity: 0.4;"><title>0</title></path></g><g><g class="node" transform="translate(0,672.9818746435506)"><rect height="6.4542489410408255" width="3"><title>0 - 9
330</title></rect><text x="9" y="3.2271244705204127" dy=".35em" text-anchor="start" style="font-size: 11px; font-family: Arial, Helvetica; pointer-events: none;">0 - 9</text></g><g class="node" transform="translate(0,547.624510214015)"><rect height="46.525323358403995" width="3"><title>10 - 19
2,380</title></rect><text x="9" y="23.262661679201997" dy=".35em" text-anchor="start" style="font-size: 11px; font-family: Arial, Helvetica; pointer-events: none;">10 - 19</text></g><g class="node" transform="translate(0,0)"><rect height="164.24612052828166" width="3"><title>20 - 29
8,402</title></rect><text x="9" y="82.12306026414083" dy=".35em" text-anchor="start" style="font-size: 11px; font-family: Arial, Helvetica; pointer-events: none;">20 - 29</text></g><g class="node" transform="translate(0,174.24612052828166)"><rect height="153.5628897655221" width="3"><title>30 - 39
7,856</title></rect><text x="9" y="76.78144488276105" dy=".35em" text-anchor="start" style="font-size: 11px; font-family: Arial, Helvetica; pointer-events: none;">30 - 39</text></g><g class="node" transform="translate(0,337.8090102938038)"><rect height="116.47947026514716" width="3"><title>40 - 49
5,959</title></rect><text x="9" y="58.23973513257358" dy=".35em" text-anchor="start" style="font-size: 11px; font-family: Arial, Helvetica; pointer-events: none;">40 - 49</text></g><g class="node" transform="translate(0,464.28848055895094)"><rect height="73.33602965506411" width="3"><title>50 - 59
3,752</title></rect><text x="9" y="36.668014827532055" dy=".35em" text-anchor="start" style="font-size: 11px; font-family: Arial, Helvetica; pointer-events: none;">50 - 59</text></g><g class="node" transform="translate(0,604.149833572419)"><rect height="39.008942336846715" width="3"><title>60 - 69
1,996</title></rect><text x="9" y="19.504471168423358" dy=".35em" text-anchor="start" style="font-size: 11px; font-family: Arial, Helvetica; pointer-events: none;">60 - 69</text></g><g class="node" transform="translate(0,653.1587759092657)"><rect height="9.823098734284878" width="3"><title>70 - 79
503</title></rect><text x="9" y="4.911549367142439" dy=".35em" text-anchor="start" style="font-size: 11px; font-family: Arial, Helvetica; pointer-events: none;">70 - 79</text></g><g class="node" transform="translate(0,689.4361235845914)"><rect height="1.5638764154085378" width="3"><title>80 - 89
80</title></rect><text x="9" y="0.7819382077042689" dy=".35em" text-anchor="start" style="font-size: 11px; font-family: Arial, Helvetica; pointer-events: none;">80 - 89</text></g><g class="node" transform="translate(0,701)"><rect height="0" width="3"><title>unknown
0</title></rect><text x="9" y="0" dy=".35em" text-anchor="start" style="font-size: 11px; font-family: Arial, Helvetica; pointer-events: none;">unknown</text></g><g class="node" transform="translate(897,288.04594340967935)"><rect height="217.4065160382581" width="3" style="fill: rgb(102, 102, 102);"><title>1
11,121</title></rect><text x="-6" y="108.70325801912905" dy=".35em" text-anchor="end" style="font-size: 11px; font-family: Arial, Helvetica; pointer-events: none;">1</text></g><g class="node" transform="translate(897,515.4524594479375)"><rect height="150.54754055206251" width="3" style="fill: rgb(102, 102, 102);"><title>2
7,701</title></rect><text x="-6" y="75.27377027603126" dy=".35em" text-anchor="end" style="font-size: 11px; font-family: Arial, Helvetica; pointer-events: none;">2</text></g><g class="node" transform="translate(897,35)"><rect height="243.04594340967938" width="3" style="fill: rgb(102, 102, 102);"><title>3
12,433</title></rect><text x="-6" y="121.52297170483969" dy=".35em" text-anchor="end" style="font-size: 11px; font-family: Arial, Helvetica; pointer-events: none;">3</text></g><g class="node" transform="translate(448.5,443.4142891375278)"><rect height="217.58571086247215" width="3"><title>female
11,131</title></rect><text x="9" y="108.79285543123608" dy=".35em" text-anchor="start" style="font-size: 11px; font-family: Arial, Helvetica; pointer-events: none;">female</text></g><g class="node" transform="translate(448.5,40.00000000000006)"><rect height="393.41428913752776" width="3"><title>male
20,125</title></rect><text x="9" y="196.70714456876388" dy=".35em" text-anchor="start" style="font-size: 11px; font-family: Arial, Helvetica; pointer-events: none;">male</text></g></g></g></svg>